<svg width="48" height="48" viewBox="0 0 48 48" fill="none" xmlns="http://www.w3.org/2000/svg">
<g clip-path="url(#clip0_7_873)">
<path d="M36.3729 34.8971C37.9039 32.7666 38.9106 31.7188 42.0688 28.1999C45.3937 31.9044 45.4908 31.9938 46.2704 32.9511C49.726 24.355 48.0256 14.0892 40.9688 7.03382C31.5939 -2.34296 16.4122 -2.34625 7.03412 7.03382C-2.34265 16.4086 -2.34595 31.5904 7.03412 40.9685C14.5171 48.4531 25.4796 49.8119 34.1361 45.762C32.2779 41.7892 33.8096 38.4602 36.3729 34.8971ZM28.5183 40.4688H19.4846V37.6458H28.5183V40.4688ZM20.9902 34.4463V31.6233H27.0127V34.4463H20.9902ZM32.2823 22.6837V19.8607H36.0586C35.7612 17.3059 34.6678 14.99 33.0323 13.1701L25.0601 22.2057L22.9428 20.3387L30.9179 11.3013C29.3191 10.189 27.4408 9.45127 25.413 9.21507V12.9913H22.5899V9.21507C17.022 9.86249 12.5917 14.2928 11.9443 19.8607H15.7206V22.6837H11.9434C12.2464 25.3007 13.3888 27.7407 15.2341 29.6679L13.1958 31.6214C10.5159 28.8229 9.03941 25.1482 9.03941 21.2722C9.03941 9.01652 23.0032 2.03838 32.7942 9.17367L34.2349 7.54102L36.3522 9.40798L34.9106 11.0416C40.3039 16.7904 40.3594 25.8234 34.807 31.6214L32.7688 29.6679C34.6141 27.7407 35.7565 25.3007 36.0595 22.6837H32.2823Z" fill="#176DE5"/>
<path d="M42.0687 32.4269C41.0332 33.5811 41.0303 33.5837 40.9679 33.6541C39.3727 35.4524 36.1404 39.489 36.1404 42.0685C36.1404 45.2487 38.6847 47.9968 42.0687 47.9968C45.3376 47.9968 47.9971 45.3373 47.9971 42.0685C47.9971 39.1141 44.0421 34.6266 42.0687 32.4269Z" fill="#176DE5"/>
</g>
<defs>
<clipPath id="clip0_7_873">
<rect width="48" height="48" fill="white"/>
</clipPath>
</defs>
</svg>
