<svg width="18" height="18" viewBox="0 0 18 18" fill="none" xmlns="http://www.w3.org/2000/svg">
<g clip-path="url(#clip0_1_51)">
<path d="M6.09279 17.9999C4.09188 11.4066 8.31975 8.99922 8.31975 8.99922C8.02394 12.5175 10.0233 15.2584 10.0233 15.2584C10.7586 15.0366 12.1621 13.9997 12.1621 13.9997C12.1621 15.2584 11.4215 17.9983 11.4215 17.9983C11.4215 17.9983 14.0141 15.9937 14.8302 12.6643C15.6452 9.33489 13.2777 5.99235 13.2777 5.99235C13.4204 8.34886 12.6231 10.6666 11.0612 12.4372C11.1394 12.347 11.2049 12.2468 11.2553 12.1383C11.5359 11.5771 11.9864 10.1185 11.7226 6.74079C11.3513 1.99946 7.05521 0.00012207 7.05521 0.00012207C7.4255 2.88898 6.31517 3.55455 3.71425 9.03803C1.11333 14.5205 6.09279 17.9999 6.09279 17.9999Z" fill="#176DE5"/>
</g>
<defs>
<clipPath id="clip0_1_51">
<rect width="18" height="18" fill="white"/>
</clipPath>
</defs>
</svg>
