<svg width="48" height="48" viewBox="0 0 48 48" fill="none" xmlns="http://www.w3.org/2000/svg">
<path d="M40.1259 20.278L34.8207 11.7785C34.2329 10.8367 33.201 10.265 32.0908 10.265H3.21788C1.44054 10.265 0 11.7056 0 13.4829V31.5674C0 33.3447 1.44054 34.7853 3.21788 34.7853H4.06203C4.87508 36.5208 6.62668 37.735 8.66682 37.735C10.707 37.735 12.4575 36.5208 13.2705 34.7853H34.7306C35.5436 36.5208 37.2952 37.735 39.3353 37.735C41.3733 37.735 43.126 36.5208 43.938 34.7853H44.7821C46.5584 34.7853 48 33.3447 48 31.5674V28.8901C48 24.3883 44.5311 20.6716 40.1259 20.278ZM8.67432 34.7477C7.5116 34.7477 6.56876 33.8049 6.56876 32.6421C6.56876 31.4794 7.5116 30.5355 8.67432 30.5355C9.83705 30.5355 10.7799 31.4794 10.7799 32.6421C10.7799 33.8049 9.83705 34.7477 8.67432 34.7477ZM27.9333 22.5262V16.7008V13.484H32.0908L37.7371 22.5262H27.9333V22.5262ZM39.3343 34.7477C38.1715 34.7477 37.2287 33.8049 37.2287 32.6421C37.2287 31.4794 38.1715 30.5355 39.3343 30.5355C40.497 30.5355 41.4398 31.4794 41.4398 32.6421C41.4398 33.8049 40.497 34.7477 39.3343 34.7477Z" fill="#176DE5"/>
</svg>
