<svg width="48" height="48" viewBox="0 0 48 48" fill="none" xmlns="http://www.w3.org/2000/svg">
<path d="M48 40.1872V7.9552L31.5856 24.4288L48 40.1872Z" fill="#176DE5"/>
<path d="M0 7.95276V40.1872L16.4152 24.428L0 7.95276Z" fill="#176DE5"/>
<path d="M1.10962 6.79999L17.9112 23.664C18.008 23.7048 18.288 23.996 18.3248 24.0792L23.0776 28.8496C23.5856 29.3224 24.4152 29.3216 24.944 28.8296L29.6728 24.0832C29.7096 23.9992 29.9928 23.7048 30.0904 23.664L46.892 6.79999H1.10962Z" fill="#176DE5"/>
<path d="M30.456 25.5632L26.056 29.9792C25.472 30.5232 24.7304 30.7944 23.992 30.7944C23.2608 30.7944 22.5336 30.5288 21.9656 30L17.5448 25.5632L1.25519 41.2H46.7448L30.456 25.5632Z" fill="#176DE5"/>
</svg>
