<svg width="48" height="48" viewBox="0 0 48 48" fill="none" xmlns="http://www.w3.org/2000/svg">
<path d="M24.375 32.4612V28.875H21.7361C21.0901 28.8769 20.4526 28.7272 19.875 28.4379V35.0322C20.8329 35.3038 21.6603 35.9126 22.2044 36.7464C22.7486 37.5801 22.9728 38.5826 22.8357 39.5688C22.6986 40.5549 22.2095 41.4582 21.4586 42.112C20.7077 42.7657 19.7456 43.1258 18.75 43.1258C17.7544 43.1258 16.7923 42.7657 16.0414 42.112C15.2905 41.4582 14.8014 40.5549 14.6643 39.5688C14.5272 38.5826 14.7514 37.5801 15.2956 36.7464C15.8397 35.9126 16.6671 35.3038 17.625 35.0322V25.1367C17.6001 24.8788 17.6001 24.6192 17.625 24.3613V6.75C17.625 6.45163 17.7435 6.16548 17.9545 5.9545C18.1655 5.74353 18.4516 5.625 18.75 5.625C19.0484 5.625 19.3345 5.74353 19.5455 5.9545C19.7565 6.16548 19.875 6.45163 19.875 6.75V19.7681L24.375 12.0916V6C24.375 4.50816 23.7824 3.07742 22.7275 2.02252C21.6726 0.967632 20.2418 0.375 18.75 0.375C17.2582 0.375 15.8274 0.967632 14.7725 2.02252C13.7176 3.07742 13.125 4.50816 13.125 6V8.625H8.25C7.95163 8.625 7.66548 8.74353 7.4545 8.9545C7.24353 9.16548 7.125 9.45163 7.125 9.75C7.125 10.0484 7.24353 10.3345 7.4545 10.5455C7.66548 10.7565 7.95163 10.875 8.25 10.875H13.125V14.625H8.25C7.95163 14.625 7.66548 14.7435 7.4545 14.9545C7.24353 15.1655 7.125 15.4516 7.125 15.75C7.125 16.0484 7.24353 16.3345 7.4545 16.5455C7.66548 16.7565 7.95163 16.875 8.25 16.875H13.125V20.625H8.25C7.95163 20.625 7.66548 20.7435 7.4545 20.9545C7.24353 21.1655 7.125 21.4516 7.125 21.75C7.125 22.0484 7.24353 22.3345 7.4545 22.5455C7.66548 22.7565 7.95163 22.875 8.25 22.875H13.125V26.625H8.25C7.95163 26.625 7.66548 26.7435 7.4545 26.9545C7.24353 27.1655 7.125 27.4516 7.125 27.75C7.125 28.0484 7.24353 28.3345 7.4545 28.5455C7.66548 28.7565 7.95163 28.875 8.25 28.875H13.125V32.4623C12.1735 33.2845 11.4124 34.3039 10.8945 35.4498C10.3765 36.5956 10.1141 37.8405 10.1256 39.0979C10.1579 41.3303 11.0517 43.4638 12.6204 45.0524C14.189 46.6411 16.311 47.562 18.5428 47.6227C18.6128 47.6243 18.6826 47.6251 18.7524 47.6251C20.5133 47.6247 22.2319 47.0854 23.6772 46.0796C25.1226 45.0738 26.2254 43.6497 26.8376 41.9986C27.4498 40.3476 27.5419 38.5488 27.1017 36.8438C26.6615 35.1389 25.71 33.6095 24.375 32.4612Z" fill="#176DE5"/>
<path d="M39.0281 23.4225L31.5146 10.6046C31.2831 10.2096 30.9523 9.882 30.555 9.65438C30.1577 9.42676 29.7078 9.30701 29.25 9.30701C28.7921 9.30701 28.3422 9.42676 27.945 9.65438C27.5477 9.882 27.2169 10.2096 26.9854 10.6046L19.4719 23.4225C19.2381 23.8213 19.1138 24.2747 19.1115 24.7369C19.1092 25.1991 19.229 25.6537 19.4588 26.0548C19.6886 26.4559 20.0201 26.7891 20.42 27.0209C20.8199 27.2528 21.2739 27.3749 21.7361 27.3749H36.7642C37.2264 27.3748 37.6804 27.2526 38.0802 27.0208C38.48 26.789 38.8116 26.4557 39.0413 26.0546C39.271 25.6536 39.3907 25.199 39.3884 24.7368C39.3861 24.2746 39.2618 23.8213 39.0281 23.4225ZM30.375 24.7499C30.375 25.0483 30.2565 25.3345 30.0455 25.5454C29.8345 25.7564 29.5484 25.8749 29.25 25.8749C28.9516 25.8749 28.6655 25.7564 28.4545 25.5454C28.2435 25.3345 28.125 25.0483 28.125 24.7499V23.9999C28.125 23.7016 28.2435 23.4154 28.4545 23.2044C28.6655 22.9935 28.9516 22.8749 29.25 22.8749C29.5484 22.8749 29.8345 22.9935 30.0455 23.2044C30.2565 23.4154 30.375 23.7016 30.375 23.9999V24.7499ZM30.375 19.4999C30.375 19.7983 30.2565 20.0845 30.0455 20.2954C29.8345 20.5064 29.5484 20.6249 29.25 20.6249C28.9516 20.6249 28.6655 20.5064 28.4545 20.2954C28.2435 20.0845 28.125 19.7983 28.125 19.4999V13.4062C28.125 13.1078 28.2435 12.8217 28.4545 12.6107C28.6655 12.3997 28.9516 12.2812 29.25 12.2812C29.5484 12.2812 29.8345 12.3997 30.0455 12.6107C30.2565 12.8217 30.375 13.1078 30.375 13.4062V19.4999Z" fill="#176DE5"/>
</svg>
