<svg width="48" height="48" viewBox="0 0 48 48" fill="none" xmlns="http://www.w3.org/2000/svg">
<path d="M17.975 35.8501H1.40625C0.629625 35.8501 0 36.4797 0 37.2563C0 38.033 0.629625 38.6626 1.40625 38.6626H17.975C18.7516 38.6626 19.3812 38.033 19.3812 37.2563C19.3812 36.4797 18.7517 35.8501 17.975 35.8501Z" fill="#176DE5"/>
<path d="M1.40625 12.15H7.43128C8.20791 12.15 8.83753 11.5204 8.83753 10.7438C8.83753 9.96715 8.20791 9.33752 7.43128 9.33752H1.40625C0.629625 9.33752 0 9.96715 0 10.7438C0 11.5204 0.629625 12.15 1.40625 12.15Z" fill="#176DE5"/>
<path d="M42.5251 11.4818C39.4253 11.4383 36.8896 13.9474 36.8896 17.0375C36.8896 18.3732 37.9715 18.9659 38.5736 19.0765C39.8882 19.3179 41.0384 18.3107 41.0396 17.0395C41.0402 16.4262 41.4261 15.8711 42.0138 15.6956C42.9747 15.4088 43.8521 16.1207 43.8521 17.0375C43.8521 19.7325 41.6596 21.9249 38.9647 21.9249H1.40625C0.629625 21.9249 0 22.5546 0 23.3312V24.6687C0 25.4453 0.629625 26.075 1.40625 26.075H38.9646C43.8031 26.075 47.8252 22.2579 47.9963 17.3624C48.1063 14.2199 45.6692 11.5258 42.5251 11.4818Z" fill="#176DE5"/>
<path d="M26.7802 28.8876H1.40625C0.629625 28.8876 0 29.5172 0 30.2938V31.6314C0 32.408 0.629625 33.0376 1.40625 33.0376H26.7802C29.452 33.0376 31.6298 35.1924 31.6672 37.8555C31.6781 38.6272 31.0652 39.3138 30.2936 39.331C29.5023 39.3488 28.8552 38.7125 28.8552 37.9252C28.8552 36.7809 27.9244 35.8502 26.7802 35.8502C25.6481 35.8502 24.7053 36.7606 24.7053 37.9252C24.7053 41.0153 27.2409 43.5243 30.3408 43.4809C33.4849 43.4368 35.922 40.7427 35.8121 37.6002C35.6411 32.7142 31.6297 28.8876 26.7802 28.8876Z" fill="#176DE5"/>
<path d="M14.5959 12.1501C15.7401 12.1501 16.6709 11.2192 16.6709 10.0751C16.6709 9.28779 17.318 8.65151 18.1093 8.66923C18.8809 8.68648 19.4937 9.3731 19.4829 10.1448C19.4455 12.8078 17.2677 14.9627 14.5959 14.9627H1.40662C0.629991 14.9627 0.000366211 15.5923 0.000366211 16.3689V17.7064C0.000366211 18.4831 0.629991 19.1127 1.40662 19.1127H14.5958C19.4454 19.1127 23.4567 15.2861 23.6276 10.4001C23.7376 7.25763 21.3004 4.56354 18.1563 4.51948C15.0564 4.47607 12.5208 6.9851 12.5208 10.0752C12.521 11.2397 13.4638 12.1501 14.5959 12.1501Z" fill="#176DE5"/>
</svg>
